<svg height="512" viewBox="0 0 64 64" width="512" xmlns="http://www.w3.org/2000/svg"><g id="Camping-Mountain-Lifestyle-Man-Traveling-Backpack"><path d="m61 48.67v9.33l-6 1.28v-7.28h2v-11.33a10.072 10.072 0 0 1 2 2.02 9.933 9.933 0 0 1 2 5.98z" fill="#806749"/><path d="m61 48.67v9.33l-6 1.28v-.64l3-.64v-9.33a9.84 9.84 0 0 0 -1-4.33v-3.67a10.072 10.072 0 0 1 2 2.02 9.933 9.933 0 0 1 2 5.98z" fill="#6a563d"/><path d="m57 23a4 4 0 1 1 0 8h-2v-8z" fill="#a78966"/><path d="m61 27a3.995 3.995 0 0 1 -4 4h-2v-.13a4.078 4.078 0 0 0 1.83-1.04 4 4 0 0 0 -1.83-6.7v-.13h2a4 4 0 0 1 4 4z" fill="#806749"/><path d="m59 33v9.69a10.072 10.072 0 0 0 -2-2.02 9.761 9.761 0 0 0 -4-1.79 5.59 5.59 0 0 0 -.59-.11l-5.41-.77v-4.94a8.879 8.879 0 0 0 2.36-1.7c.12-.12.23-.24.34-.36h7.3a2.006 2.006 0 0 1 2 2z" fill="#fee9ab"/><path d="m59 33v9.69a10.072 10.072 0 0 0 -2-2.02 9.484 9.484 0 0 0 -2-1.16v-6.51a2.006 2.006 0 0 0 -2-2h4a2.006 2.006 0 0 1 2 2z" fill="#ffd422"/><path d="m58 17h-6-18-6l3-3 3-3h18z" fill="#a78966"/><path d="m57 40.67v11.33h-4v-13.12a9.761 9.761 0 0 1 4 1.79z" fill="#ff3051"/><path d="m57 40.67v11.33h-2v-11.33a9.484 9.484 0 0 0 -2-1.16v-.63a9.761 9.761 0 0 1 4 1.79z" fill="#cd2a00"/><path d="m55 56v3.28l-8.03 1.72h-3.97v-5z" fill="#fee9ab"/><path d="m55 52v4h-12v-11h6l-2-7 5.41.77a5.59 5.59 0 0 1 .59.11v13.12z" fill="#a78966"/><path d="m55 23v8h-5.3a8.955 8.955 0 0 0 2.3-6 2.006 2.006 0 0 0 2-2z" fill="#ff3051"/><path d="m54 21v2a2.006 2.006 0 0 1 -2 2 8.955 8.955 0 0 1 -2.3 6c-.11.12-.22.24-.34.36a8.981 8.981 0 0 1 -12.72 0c-.12-.12-.23-.24-.34-.36a8.955 8.955 0 0 1 -2.3-6 2.015 2.015 0 0 1 -2-2v-2a2.006 2.006 0 0 1 2-2v-2h18v2a2.015 2.015 0 0 1 2 2z" fill="#ffc477"/><path d="m48 19v-2h4v2a2.015 2.015 0 0 1 2 2v2a2.006 2.006 0 0 1 -2 2 8.955 8.955 0 0 1 -2.3 6c-.11.12-.22.24-.34.36a8.981 8.981 0 0 1 -6.36 2.64 9.5 9.5 0 0 1 -2-.22 9.167 9.167 0 0 0 2-.72 8.879 8.879 0 0 0 2.36-1.7c.12-.12.23-.24.34-.36a8.955 8.955 0 0 0 2.3-6z" fill="#ffa733"/><path d="m52 9v2h-18v-2a5.8 5.8 0 0 1 .35-2h17.3a5.8 5.8 0 0 1 .35 2z" fill="#fee9ab"/><path d="m51.65 7h-17.3a5.981 5.981 0 0 1 5.65-4h6a5.981 5.981 0 0 1 5.65 4z" fill="#a78966"/><path d="m58 17h-4l-6-6h4z" fill="#806749"/><path d="m52 9v2h-4v-2a5.8 5.8 0 0 0 -.35-2h4a5.8 5.8 0 0 1 .35 2z" fill="#ffd422"/><path d="m51.65 7h-4a5.981 5.981 0 0 0 -5.65-4h4a5.981 5.981 0 0 1 5.65 4z" fill="#806749"/><path d="m47 38 2 7h-6z" fill="#fee9ab"/><path d="m47 33.06v4.94l-4 7-4-7v-4.94a8.981 8.981 0 0 0 8 0z" fill="#ffc477"/><path d="m43 56v5h-3.94l-8.06-1.72v-3.28z" fill="#fee9ab"/><path d="m43 45v11h-12v-4h2v-13.12a5.59 5.59 0 0 1 .59-.11l5.41-.77-2 7z" fill="#a78966"/><path d="m39 38 4 7h-6z" fill="#fee9ab"/><path d="m39 33.06v4.94l-5.41.77a5.59 5.59 0 0 0 -.59.11 9.761 9.761 0 0 0 -4 1.79 10.072 10.072 0 0 0 -2 2.02v-9.69a2.006 2.006 0 0 1 2-2h7.3c.11.12.22.24.34.36a8.879 8.879 0 0 0 2.36 1.7z" fill="#fee9ab"/><path d="m36.3 31h-5.3v-8h1a2.015 2.015 0 0 0 2 2 8.955 8.955 0 0 0 2.3 6z" fill="#ff3051"/><path d="m34 17v2a2.006 2.006 0 0 0 -2 2v2h-3a3.995 3.995 0 0 0 -4 4h-22l11.08-14 1.73-2.19 6.19-7.81 9 11-3 3z" fill="#9cdd05"/><path d="m33 38.88v13.12h-4v-11.33a9.761 9.761 0 0 1 4-1.79z" fill="#ff3051"/><path d="m33 38.88v13.12h-2v-12.49a9.511 9.511 0 0 1 2-.63z" fill="#cd2a00"/><path d="m31 56v3.28l-6-1.28v-9.33a9.933 9.933 0 0 1 2-5.98 10.072 10.072 0 0 1 2-2.02v11.33h2z" fill="#806749"/><path d="m31 23v8h-2a4 4 0 1 1 0-8z" fill="#a78966"/><path d="m12 37.5 9 19.5h-7l-2-5-2 5h-7z" fill="#a78966"/><path d="m21 57h-4l-7-15.17 2-4.33z" fill="#806749"/><path d="m15.81 10.81-1.73 2.19h-11.08l7-8z" fill="#5eac24"/><path d="m13.1 37.5 2.806-6.081a1 1 0 0 0 -1.816-.838l-2.09 4.533-2.092-4.533a1 1 0 0 0 -1.816.838l2.808 6.081-8.808 19.081a1 1 0 0 0 .908 1.419h7a1 1 0 0 0 .929-.628l1.071-2.68 1.071 2.68a1 1 0 0 0 .929.628h7a1 1 0 0 0 .908-1.419zm1.577 18.5-1.748-4.372a1 1 0 0 0 -1.858 0l-1.748 4.372h-4.76l7.437-16.114 7.437 16.114z"/><circle cx="39" cy="22" r="2"/><circle cx="47" cy="22" r="2"/><path d="m60 33a2.957 2.957 0 0 0 -.52-1.68 4.986 4.986 0 0 0 -2.48-9.32h-2v-1a3.014 3.014 0 0 0 -2-2.83v-.17h5a.987.987 0 0 0 .92-.62 1 1 0 0 0 -.21-1.09l-5.71-5.7v-1.59a7.008 7.008 0 0 0 -7-7h-6a7.008 7.008 0 0 0 -7 7v1.59l-1.93 1.92-8.3-10.14a1.155 1.155 0 0 0 -.78-.37.966.966 0 0 0 -.77.38l-5.49 6.93-5.02-5.02a1 1 0 0 0 -1.46.05l-7 8a1 1 0 0 0 .75 1.66h9.02l-9.8 12.38a1 1 0 0 0 -.12 1.06 1.012 1.012 0 0 0 .9.56h21.1a5.029 5.029 0 0 0 2.42 3.32 2.957 2.957 0 0 0 -.52 1.68v9.39a10.912 10.912 0 0 0 -2 6.28v9.33a1 1 0 0 0 .79.98l14.06 3a1.492 1.492 0 0 0 .21.02h7.91a1.492 1.492 0 0 0 .21-.02l14.03-3a1 1 0 0 0 .79-.98v-9.33a10.912 10.912 0 0 0 -2-6.28zm-4-9h1a3 3 0 1 1 0 6h-1zm1 8a1 1 0 0 1 1 1v7.21a10.993 10.993 0 0 0 -5.44-2.43l-4.56-.65v-3.48a10.317 10.317 0 0 0 2.12-1.65zm-14 1a8.011 8.011 0 0 1 -8-8 1 1 0 0 0 -1-1 1 1 0 0 1 -1-1v-2a1 1 0 0 1 1-1 1 1 0 0 0 1-1v-1h16v1a1 1 0 0 0 1 1 1 1 0 0 1 1 1v2a1 1 0 0 1 -1 1 1 1 0 0 0 -1 1 8.011 8.011 0 0 1 -8 8zm4.67 11h-2.95l1.97-3.44zm-8.36-3.44 1.97 3.44h-2.95zm-3.43-8.56a10.317 10.317 0 0 0 2.12 1.65v3.48l-4.56.65a10.993 10.993 0 0 0 -5.44 2.43v-7.21a1 1 0 0 1 1-1zm-3.88-2v-4.78a2.969 2.969 0 0 0 1.04.62 9.825 9.825 0 0 0 1.31 4.16zm22-4.78v4.78h-2.35a9.825 9.825 0 0 0 1.31-4.16 2.969 2.969 0 0 0 1.04-.62zm-14-21.22h6a4.952 4.952 0 0 1 3.97 2h-13.94a4.952 4.952 0 0 1 3.97-2zm-5 5a5.468 5.468 0 0 1 .1-1h15.8a5.468 5.468 0 0 1 .1 1v1h-16zm-.59 3h17.18l4 4h-25.18zm-29.21 0 4.85-5.54 4.43 4.43-.88 1.11zm18.9 14h-19.03l16.94-21.41 7.64 9.34-2.36 2.36a1 1 0 0 0 -.21 1.09.987.987 0 0 0 .92.62h5v.17a3.014 3.014 0 0 0 -2 2.83v1h-2a5.013 5.013 0 0 0 -3.54 1.47 5.068 5.068 0 0 0 -1.36 2.53zm1.9 1a2.988 2.988 0 0 1 3-3h1v6h-1a3.009 3.009 0 0 1 -3-3zm4 31.04-4-.85v-8.52a8.984 8.984 0 0 1 2-5.62v8.95a1 1 0 0 0 1 1h1zm0-16.84a9.124 9.124 0 0 1 2-1v10.8h-2zm12 18.8h-2.83l-7.17-1.53v-1.47h10zm0-5h-10v-2h1a1 1 0 0 0 1-1v-12.28l3.61-.51-1.57 5.52a.97.97 0 0 0 .16.87 1.014 1.014 0 0 0 .8.4h5zm-2-17.27v-3.2a9.809 9.809 0 0 0 6 0v3.2l-3 5.25zm14 20.74-7.14 1.53h-2.86v-3h10zm0-3.47h-10v-9h5a1.014 1.014 0 0 0 .8-.4.97.97 0 0 0 .16-.87l-1.57-5.52 3.61.51v12.28a1 1 0 0 0 1 1h1zm0-14.8a9.124 9.124 0 0 1 2 1v9.8h-2zm6 16.99-4 .86v-5.05h1a1 1 0 0 0 1-1v-8.95a8.984 8.984 0 0 1 2 5.62z"/></g></svg>